<mxfile host="Electron" modified="2024-07-12T13:45:42.058Z" agent="Mozilla/5.0 (Windows NT 10.0; Win64; x64) AppleWebKit/537.36 (KHTML, like Gecko) draw.io/24.5.3 Chrome/124.0.6367.207 Electron/30.0.6 Safari/537.36" etag="Mnn3WTnA6xV3vZlh7sUv" version="24.5.3" type="device">
  <diagram id="prtHgNgQTEPvFCAcTncT" name="Page-1">
    <mxGraphModel dx="1100" dy="2111" grid="1" gridSize="10" guides="1" tooltips="1" connect="1" arrows="1" fold="1" page="1" pageScale="1" pageWidth="827" pageHeight="1169" math="0" shadow="0">
      <root>
        <mxCell id="0" />
        <mxCell id="1" parent="0" />
        <mxCell id="loJwS_zDflnNTZXkqEMe-1" value="user" style="rounded=0;whiteSpace=wrap;html=1;" vertex="1" parent="1">
          <mxGeometry x="40" y="290" width="140" height="40" as="geometry" />
        </mxCell>
        <mxCell id="loJwS_zDflnNTZXkqEMe-3" value="" style="endArrow=none;html=1;rounded=0;entryX=0.5;entryY=1;entryDx=0;entryDy=0;" edge="1" parent="1" target="loJwS_zDflnNTZXkqEMe-1">
          <mxGeometry width="50" height="50" relative="1" as="geometry">
            <mxPoint x="110" y="360" as="sourcePoint" />
            <mxPoint x="440" y="670" as="targetPoint" />
            <Array as="points">
              <mxPoint x="110" y="350" />
            </Array>
          </mxGeometry>
        </mxCell>
        <mxCell id="loJwS_zDflnNTZXkqEMe-4" value="&#xa;&#xa;&lt;table style=&quot;border-collapse:&#xa; collapse;width:96pt&quot; width=&quot;128&quot; cellspacing=&quot;0&quot; cellpadding=&quot;0&quot; border=&quot;0&quot;&gt;&#xa;&#xa; &lt;colgroup&gt;&lt;col style=&quot;width:48pt&quot; span=&quot;2&quot; width=&quot;64&quot;&gt;&#xa; &lt;/colgroup&gt;&lt;tbody&gt;&lt;tr style=&quot;height:14.4pt&quot; height=&quot;19&quot;&gt;&#xa;  &lt;td style=&quot;height:14.4pt;width:48pt&quot; width=&quot;64&quot; height=&quot;19&quot;&gt;user_id&lt;/td&gt;&#xa;  &lt;td style=&quot;width:48pt&quot; width=&quot;64&quot;&gt;INT&lt;/td&gt;&#xa; &lt;/tr&gt;&#xa; &lt;tr style=&quot;height:14.4pt&quot; height=&quot;19&quot;&gt;&#xa;  &lt;td style=&quot;height:14.4pt&quot; height=&quot;19&quot;&gt;user_type&lt;/td&gt;&#xa;  &lt;td&gt;ENUM&lt;/td&gt;&#xa; &lt;/tr&gt;&#xa; &lt;tr style=&quot;height:14.4pt&quot; height=&quot;19&quot;&gt;&#xa;  &lt;td style=&quot;height:14.4pt&quot; height=&quot;19&quot;&gt;name&lt;/td&gt;&#xa;  &lt;td&gt;VARCHAR&lt;/td&gt;&#xa; &lt;/tr&gt;&#xa; &lt;tr style=&quot;height:14.4pt&quot; height=&quot;19&quot;&gt;&#xa;  &lt;td style=&quot;height:14.4pt&quot; height=&quot;19&quot;&gt;email&lt;/td&gt;&#xa;  &lt;td&gt;VARCHAR&lt;/td&gt;&#xa; &lt;/tr&gt;&#xa; &lt;tr style=&quot;height:14.4pt&quot; height=&quot;19&quot;&gt;&#xa;  &lt;td style=&quot;height:14.4pt&quot; height=&quot;19&quot;&gt;password_hash&lt;/td&gt;&#xa;  &lt;td&gt;VARCHAR&lt;/td&gt;&#xa; &lt;/tr&gt;&#xa; &lt;tr style=&quot;height:14.4pt&quot; height=&quot;19&quot;&gt;&#xa;  &lt;td style=&quot;height:14.4pt&quot; height=&quot;19&quot;&gt;phone_number&lt;/td&gt;&#xa;  &lt;td&gt;VARCHAR&lt;/td&gt;&#xa; &lt;/tr&gt;&#xa;&#xa;&lt;/tbody&gt;&lt;/table&gt;&#xa;&#xa;&#xa;&#xa;&#xa;" style="rounded=0;whiteSpace=wrap;html=1;spacing=2;spacingTop=-300;" vertex="1" parent="1">
          <mxGeometry x="41.5" y="360" width="137" height="200" as="geometry" />
        </mxCell>
        <mxCell id="loJwS_zDflnNTZXkqEMe-5" value="" style="shape=singleArrow;whiteSpace=wrap;html=1;" vertex="1" parent="1">
          <mxGeometry x="190" y="380" width="100" height="60" as="geometry" />
        </mxCell>
        <mxCell id="loJwS_zDflnNTZXkqEMe-6" value="rooms" style="rounded=0;whiteSpace=wrap;html=1;" vertex="1" parent="1">
          <mxGeometry x="330" y="290" width="120" height="40" as="geometry" />
        </mxCell>
        <mxCell id="loJwS_zDflnNTZXkqEMe-7" value="" style="endArrow=none;html=1;rounded=0;entryX=0.5;entryY=1;entryDx=0;entryDy=0;" edge="1" parent="1" target="loJwS_zDflnNTZXkqEMe-6">
          <mxGeometry width="50" height="50" relative="1" as="geometry">
            <mxPoint x="390" y="360" as="sourcePoint" />
            <mxPoint x="440" y="670" as="targetPoint" />
          </mxGeometry>
        </mxCell>
        <mxCell id="loJwS_zDflnNTZXkqEMe-9" value="&#xa;&#xa;&lt;table style=&quot;border-collapse:&#xa; collapse;width:96pt&quot; width=&quot;128&quot; cellspacing=&quot;0&quot; cellpadding=&quot;0&quot; border=&quot;0&quot;&gt;&#xa;&#xa; &lt;colgroup&gt;&lt;col style=&quot;width:48pt&quot; span=&quot;2&quot; width=&quot;64&quot;&gt;&#xa; &lt;/colgroup&gt;&lt;tbody&gt;&lt;tr style=&quot;height:14.4pt&quot; height=&quot;19&quot;&gt;&#xa;  &lt;td style=&quot;height:14.4pt;width:48pt&quot; width=&quot;64&quot; height=&quot;19&quot;&gt;room_id&lt;/td&gt;&#xa;  &lt;td style=&quot;width:48pt&quot; width=&quot;64&quot;&gt;INT&lt;/td&gt;&#xa; &lt;/tr&gt;&#xa; &lt;tr style=&quot;height:14.4pt&quot; height=&quot;19&quot;&gt;&#xa;  &lt;td style=&quot;height:14.4pt&quot; height=&quot;19&quot;&gt;host_id&lt;/td&gt;&#xa;  &lt;td&gt;INT&lt;/td&gt;&#xa; &lt;/tr&gt;&#xa; &lt;tr style=&quot;height:14.4pt&quot; height=&quot;19&quot;&gt;&#xa;  &lt;td style=&quot;height:14.4pt&quot; height=&quot;19&quot;&gt;name&lt;/td&gt;&#xa;  &lt;td&gt;VARCHAR&lt;/td&gt;&#xa; &lt;/tr&gt;&#xa; &lt;tr style=&quot;height:14.4pt&quot; height=&quot;19&quot;&gt;&#xa;  &lt;td style=&quot;height:14.4pt&quot; height=&quot;19&quot;&gt;description&lt;/td&gt;&#xa;  &lt;td&gt;TEXT&lt;/td&gt;&#xa; &lt;/tr&gt;&#xa; &lt;tr style=&quot;height:14.4pt&quot; height=&quot;19&quot;&gt;&#xa;  &lt;td style=&quot;height:14.4pt&quot; height=&quot;19&quot;&gt;residents&lt;/td&gt;&#xa;  &lt;td&gt;INT&lt;/td&gt;&#xa; &lt;/tr&gt;&#xa; &lt;tr style=&quot;height:14.4pt&quot; height=&quot;19&quot;&gt;&#xa;  &lt;td style=&quot;height:14.4pt&quot; height=&quot;19&quot;&gt;price&lt;/td&gt;&#xa;  &lt;td&gt;DECIMAL&lt;/td&gt;&#xa; &lt;/tr&gt;&#xa; &lt;tr style=&quot;height:14.4pt&quot; height=&quot;19&quot;&gt;&#xa;  &lt;td style=&quot;height:14.4pt&quot; height=&quot;19&quot;&gt;has_ac&lt;/td&gt;&#xa;  &lt;td&gt;BOOLEAN&lt;/td&gt;&#xa; &lt;/tr&gt;&#xa; &lt;tr style=&quot;height:14.4pt&quot; height=&quot;19&quot;&gt;&#xa;  &lt;td style=&quot;height:14.4pt&quot; height=&quot;19&quot;&gt;has_refrigerator&lt;/td&gt;&#xa;  &lt;td&gt;BOOLEAN&lt;/td&gt;&#xa; &lt;/tr&gt;&#xa;&#xa;&lt;/tbody&gt;&lt;/table&gt;&#xa;&#xa;&#xa;&#xa;&#xa;" style="rounded=0;whiteSpace=wrap;html=1;spacingTop=-438;" vertex="1" parent="1">
          <mxGeometry x="330" y="360" width="120" height="200" as="geometry" />
        </mxCell>
        <mxCell id="loJwS_zDflnNTZXkqEMe-10" value="" style="shape=singleArrow;whiteSpace=wrap;html=1;" vertex="1" parent="1">
          <mxGeometry x="500" y="380" width="100" height="60" as="geometry" />
        </mxCell>
        <mxCell id="loJwS_zDflnNTZXkqEMe-11" value="bookings" style="rounded=0;whiteSpace=wrap;html=1;" vertex="1" parent="1">
          <mxGeometry x="610" y="290" width="120" height="40" as="geometry" />
        </mxCell>
        <mxCell id="loJwS_zDflnNTZXkqEMe-12" value="" style="endArrow=none;html=1;rounded=0;entryX=0.5;entryY=1;entryDx=0;entryDy=0;" edge="1" parent="1" target="loJwS_zDflnNTZXkqEMe-11">
          <mxGeometry width="50" height="50" relative="1" as="geometry">
            <mxPoint x="670" y="360" as="sourcePoint" />
            <mxPoint x="440" y="670" as="targetPoint" />
          </mxGeometry>
        </mxCell>
        <mxCell id="loJwS_zDflnNTZXkqEMe-13" value="&#xa;&#xa;&lt;table style=&quot;border-collapse:&#xa; collapse;width:96pt&quot; width=&quot;128&quot; cellspacing=&quot;0&quot; cellpadding=&quot;0&quot; border=&quot;0&quot;&gt;&#xa;&#xa; &lt;colgroup&gt;&lt;col style=&quot;width:48pt&quot; span=&quot;2&quot; width=&quot;64&quot;&gt;&#xa; &lt;/colgroup&gt;&lt;tbody&gt;&lt;tr style=&quot;height:14.4pt&quot; height=&quot;19&quot;&gt;&#xa;  &lt;td style=&quot;height:14.4pt;width:48pt&quot; width=&quot;64&quot; height=&quot;19&quot;&gt;reservation_id&lt;/td&gt;&#xa;  &lt;td style=&quot;width:48pt&quot; width=&quot;64&quot;&gt;INT&lt;/td&gt;&#xa; &lt;/tr&gt;&#xa; &lt;tr style=&quot;height:14.4pt&quot; height=&quot;19&quot;&gt;&#xa;  &lt;td style=&quot;height:14.4pt&quot; height=&quot;19&quot;&gt;room_id&lt;/td&gt;&#xa;  &lt;td&gt;INT&lt;/td&gt;&#xa; &lt;/tr&gt;&#xa; &lt;tr style=&quot;height:14.4pt&quot; height=&quot;19&quot;&gt;&#xa;  &lt;td style=&quot;height:14.4pt&quot; height=&quot;19&quot;&gt;guest_id&lt;/td&gt;&#xa;  &lt;td&gt;INT&lt;/td&gt;&#xa; &lt;/tr&gt;&#xa; &lt;tr style=&quot;height:14.4pt&quot; height=&quot;19&quot;&gt;&#xa;  &lt;td style=&quot;height:14.4pt&quot; height=&quot;19&quot;&gt;start_date&lt;/td&gt;&#xa;  &lt;td&gt;DATE&lt;/td&gt;&#xa; &lt;/tr&gt;&#xa; &lt;tr style=&quot;height:14.4pt&quot; height=&quot;19&quot;&gt;&#xa;  &lt;td style=&quot;height:14.4pt&quot; height=&quot;19&quot;&gt;end_date&lt;/td&gt;&#xa;  &lt;td&gt;DATE&lt;/td&gt;&#xa; &lt;/tr&gt;&#xa; &lt;tr style=&quot;height:14.4pt&quot; height=&quot;19&quot;&gt;&#xa;  &lt;td style=&quot;height:14.4pt&quot; height=&quot;19&quot;&gt;status&lt;/td&gt;&#xa;  &lt;td&gt;ENUM&lt;/td&gt;&#xa; &lt;/tr&gt;&#xa;&#xa;&lt;/tbody&gt;&lt;/table&gt;&#xa;&#xa;&#xa;&#xa;&#xa;" style="rounded=0;whiteSpace=wrap;html=1;spacingTop=-375;" vertex="1" parent="1">
          <mxGeometry x="610" y="360" width="120" height="200" as="geometry" />
        </mxCell>
        <mxCell id="loJwS_zDflnNTZXkqEMe-14" value="Reviews" style="rounded=0;whiteSpace=wrap;html=1;" vertex="1" parent="1">
          <mxGeometry x="330" y="630" width="120" height="60" as="geometry" />
        </mxCell>
        <mxCell id="loJwS_zDflnNTZXkqEMe-17" value="" style="shape=flexArrow;endArrow=classic;html=1;rounded=0;width=36;endSize=5.57;endWidth=11;" edge="1" parent="1">
          <mxGeometry width="50" height="50" relative="1" as="geometry">
            <mxPoint x="580" y="570" as="sourcePoint" />
            <mxPoint x="490" y="630" as="targetPoint" />
          </mxGeometry>
        </mxCell>
        <mxCell id="loJwS_zDflnNTZXkqEMe-18" value="" style="endArrow=none;html=1;rounded=0;" edge="1" parent="1">
          <mxGeometry width="50" height="50" relative="1" as="geometry">
            <mxPoint x="390" y="740" as="sourcePoint" />
            <mxPoint x="390" y="691" as="targetPoint" />
          </mxGeometry>
        </mxCell>
        <mxCell id="loJwS_zDflnNTZXkqEMe-19" value="&#xa;&#xa;&lt;table style=&quot;border-collapse:&#xa; collapse;width:96pt&quot; width=&quot;128&quot; cellspacing=&quot;0&quot; cellpadding=&quot;0&quot; border=&quot;0&quot;&gt;&#xa;&#xa; &lt;colgroup&gt;&lt;col style=&quot;width:48pt&quot; span=&quot;2&quot; width=&quot;64&quot;&gt;&#xa; &lt;/colgroup&gt;&lt;tbody&gt;&lt;tr style=&quot;height:14.4pt&quot; height=&quot;19&quot;&gt;&#xa;  &lt;td style=&quot;height:14.4pt;width:48pt&quot; width=&quot;64&quot; height=&quot;19&quot;&gt;review_id&lt;/td&gt;&#xa;  &lt;td style=&quot;width:48pt&quot; width=&quot;64&quot;&gt;INT&lt;/td&gt;&#xa; &lt;/tr&gt;&#xa; &lt;tr style=&quot;height:14.4pt&quot; height=&quot;19&quot;&gt;&#xa;  &lt;td style=&quot;height:14.4pt&quot; height=&quot;19&quot;&gt;room_id&lt;/td&gt;&#xa;  &lt;td&gt;INT&lt;/td&gt;&#xa; &lt;/tr&gt;&#xa; &lt;tr style=&quot;height:14.4pt&quot; height=&quot;19&quot;&gt;&#xa;  &lt;td style=&quot;height:14.4pt&quot; height=&quot;19&quot;&gt;guest_id&lt;/td&gt;&#xa;  &lt;td&gt;INT&lt;/td&gt;&#xa; &lt;/tr&gt;&#xa; &lt;tr style=&quot;height:14.4pt&quot; height=&quot;19&quot;&gt;&#xa;  &lt;td style=&quot;height:14.4pt&quot; height=&quot;19&quot;&gt;rating&lt;/td&gt;&#xa;  &lt;td&gt;INT&lt;/td&gt;&#xa; &lt;/tr&gt;&#xa; &lt;tr style=&quot;height:14.4pt&quot; height=&quot;19&quot;&gt;&#xa;  &lt;td style=&quot;height:14.4pt&quot; height=&quot;19&quot;&gt;comment&lt;/td&gt;&#xa;  &lt;td&gt;TEXT&lt;/td&gt;&#xa; &lt;/tr&gt;&#xa; &lt;tr style=&quot;height:14.4pt&quot; height=&quot;19&quot;&gt;&#xa;  &lt;td style=&quot;height:14.4pt&quot; height=&quot;19&quot;&gt;created_at&lt;/td&gt;&#xa;  &lt;td&gt;TIMESTAMP&lt;/td&gt;&#xa; &lt;/tr&gt;&#xa;&#xa;&lt;/tbody&gt;&lt;/table&gt;&#xa;&#xa;&#xa;&#xa;&#xa;" style="rounded=0;whiteSpace=wrap;html=1;spacingTop=-401;" vertex="1" parent="1">
          <mxGeometry x="330" y="720" width="120" height="170" as="geometry" />
        </mxCell>
        <mxCell id="loJwS_zDflnNTZXkqEMe-20" value="" style="shape=flexArrow;endArrow=classic;html=1;rounded=0;" edge="1" parent="1">
          <mxGeometry width="50" height="50" relative="1" as="geometry">
            <mxPoint x="390" y="620" as="sourcePoint" />
            <mxPoint x="390" y="570" as="targetPoint" />
          </mxGeometry>
        </mxCell>
      </root>
    </mxGraphModel>
  </diagram>
</mxfile>
